# xmcd
#
# Track frame offsets:
#	150
#	15827
#	26987
#	44167
#	58394
#	77941
#	85700
#	99607
#	110260
#	124473
#
# Disc length: 1803 seconds
#
# Revision: 0
# Processed by: cddbd v1.5.2PL0 Copyright (c) Steve Scherf et al.
# Submitted via: dBpowerAMP V4.0
#
DISCID=8607090a
DTITLE=John Sebastian - Tarzana kid
DYEAR=1975
DGENRE=Country
TTITLE0=Sitting in Limbo
TTITLE1=Friends Again
TTITLE2=Dixie Chicken
TTITLE3=Stories We Could Tell
TTITLE4=Face of Appalachia
TTITLE5=Wildwood Flower
TTITLE6=wild About My Lovin
TTITLE7=Singing the Blues
TTITLE8=Sportin Life
TTITLE9=Harpoon
EXTD=
EXTT0=
EXTT1=
EXTT2=
EXTT3=
EXTT4=
EXTT5=
EXTT6=
EXTT7=
EXTT8=
EXTT9=
PLAYORDER=
